SplineFontDB: 3.2
FontName: Pocod
FullName: Pocod
FamilyName: Pocod
Weight: Book
Copyright: Copyright (c) 2022, dzuhan (a.k.a dezuhan)
Version: 001.000
ItalicAngle: 0
UnderlinePosition: -100
UnderlineWidth: 50
Ascent: 800
Descent: 200
InvalidEm: 0
sfntRevision: 0x00010000
LayerCount: 2
Layer: 0 1 "Back" 1
Layer: 1 1 "Fore" 0
XUID: [1021 435 541130643 12064850]
StyleMap: 0x0000
FSType: 0
OS2Version: 4
OS2_WeightWidthSlopeOnly: 0
OS2_UseTypoMetrics: 1
CreationTime: 1659792804
ModificationTime: 1708448589
PfmFamily: 17
TTFWeight: 400
TTFWidth: 5
LineGap: 90
VLineGap: 0
Panose: 2 0 5 9 0 0 0 0 0 0
OS2TypoAscent: 1000
OS2TypoAOffset: 0
OS2TypoDescent: -200
OS2TypoDOffset: 0
OS2TypoLinegap: 90
OS2WinAscent: 1000
OS2WinAOffset: 0
OS2WinDescent: 200
OS2WinDOffset: 0
HheadAscent: 1000
HheadAOffset: 0
HheadDescent: -200
HheadDOffset: 0
OS2SubXSize: 650
OS2SubYSize: 699
OS2SubXOff: 0
OS2SubYOff: 140
OS2SupXSize: 650
OS2SupYSize: 699
OS2SupXOff: 0
OS2SupYOff: 479
OS2StrikeYSize: 49
OS2StrikeYPos: 258
OS2CapHeight: 1000
OS2XHeight: 1000
OS2Vendor: 'PfEd'
OS2CodePages: 80000000.00000000
OS2UnicodeRanges: 00000000.00000000.00000000.00000000
MarkAttachClasses: 1
DEI: 91125
ShortTable: cvt  2
  33
  633
EndShort
ShortTable: maxp 16
  1
  0
  154
  32
  5
  0
  0
  2
  0
  1
  1
  0
  64
  0
  0
  0
EndShort
LangName: 1033 "" "" "Regular" "FontForge 2.0 : Pocod : 7-8-2022" "" "Version 001.000"
GaspTable: 1 65535 2 0
Encoding: UnicodeBmp
UnicodeInterp: none
NameList: AGL For New Fonts
DisplaySize: -48
AntiAlias: 1
FitToEm: 0
WinInfo: 0 19 6
BeginChars: 65539 155

StartChar: .notdef
Encoding: 127 127 0
AltUni2: 00f0fc.ffffffff.0 002248.ffffffff.0 00222b.ffffffff.0 002044.ffffffff.0 002030.ffffffff.0 0003c0.ffffffff.0 0002c6.ffffffff.0 000192.ffffffff.0 000178.ffffffff.0 000131.ffffffff.0 00f0fc.ffffffff.0 002248.ffffffff.0 00222b.ffffffff.0 002044.ffffffff.0 002030.ffffffff.0 0003c0.ffffffff.0 0002c6.ffffffff.0 000192.ffffffff.0 000178.ffffffff.0 000131.ffffffff.0
Width: 1200
GlyphClass: 1
Flags: W
LayerCount: 2
Fore
SplineSet
100 -297 m 1,0,-1
 1100 -297 l 1,1,-1
 1100 -295 l 1,2,-1
 100 -295 l 1,3,-1
 100 -297 l 1,0,-1
EndSplineSet
EndChar

StartChar: exclam
Encoding: 33 33 5
Width: 400
GlyphClass: 1
Flags: W
LayerCount: 2
Fore
SplineSet
300 800 m 5,0,-1
 300 200 l 1,1,-1
 100 200 l 1,2,-1
 100 800 l 1,3,-1
 300 800 l 5,0,-1
300 0 m 1,4,-1
 300 -200 l 1,5,-1
 100 -200 l 1,6,-1
 100 0 l 1,7,-1
 300 0 l 1,4,-1
EndSplineSet
EndChar

StartChar: quotedbl
Encoding: 34 34 6
Width: 800
GlyphClass: 1
Flags: W
LayerCount: 2
Fore
SplineSet
300 800 m 1,0,-1
 700 800 l 1,1,-1
 700 600 l 1,2,-1
 500 600 l 1,3,-1
 500 400 l 1,4,-1
 100 400 l 1,5,-1
 100 600 l 1,6,-1
 300 600 l 1,7,-1
 300 800 l 1,0,-1
EndSplineSet
EndChar

StartChar: numbersign
Encoding: 35 35 7
Width: 1200
GlyphClass: 1
Flags: W
LayerCount: 2
Fore
SplineSet
500 800 m 1,0,-1
 500 600 l 1,1,-1
 700 600 l 1,2,-1
 700 800 l 1,3,-1
 900 800 l 1,4,-1
 900 600 l 1,5,-1
 1100 600 l 1,6,-1
 1100 400 l 1,7,-1
 900 400 l 1,8,-1
 900 200 l 1,9,-1
 1100 200 l 1,10,-1
 1100 0 l 1,11,-1
 900 0 l 1,12,-1
 900 -200 l 1,13,-1
 700 -200 l 1,14,-1
 700 0 l 1,15,-1
 500 0 l 1,16,-1
 500 -200 l 1,17,-1
 300 -200 l 1,18,-1
 300 0 l 1,19,-1
 100 0 l 1,20,-1
 100 200 l 1,21,-1
 300 200 l 1,22,-1
 300 400 l 1,23,-1
 100 400 l 1,24,-1
 100 600 l 1,25,-1
 300 600 l 1,26,-1
 300 800 l 1,27,-1
 500 800 l 1,0,-1
700 200 m 1,28,-1
 700 400 l 1,29,-1
 500 400 l 1,30,-1
 500 200 l 1,31,-1
 700 200 l 1,28,-1
EndSplineSet
EndChar

StartChar: dollar
Encoding: 36 36 8
Width: 1000
GlyphClass: 1
Flags: W
LayerCount: 2
Fore
SplineSet
700 600 m 1,0,-1
 900 600 l 1,1,-1
 900 400 l 1,2,-1
 700 400 l 1,3,-1
 700 200 l 1,4,-1
 900 200 l 1,5,-1
 900 0 l 1,6,-1
 700 0 l 1,7,-1
 700 -200 l 1,8,-1
 500 -200 l 1,9,-1
 500 0 l 1,10,-1
 300 0 l 1,11,-1
 300 200 l 1,12,-1
 100 200 l 1,13,-1
 100 400 l 1,14,-1
 300 400 l 1,15,-1
 300 600 l 1,16,-1
 500 600 l 1,17,-1
 500 800 l 1,18,-1
 700 800 l 1,19,-1
 700 600 l 1,0,-1
500 200 m 1,20,-1
 500 400 l 1,21,-1
 300 400 l 1,22,-1
 300 200 l 1,23,-1
 500 200 l 1,20,-1
EndSplineSet
EndChar

StartChar: percent
Encoding: 37 37 9
Width: 1200
GlyphClass: 1
Flags: W
LayerCount: 2
Fore
SplineSet
300 800 m 1,0,-1
 300 600 l 1,1,-1
 100 600 l 1,2,-1
 100 800 l 1,3,-1
 300 800 l 1,0,-1
1100 0 m 1,4,-1
 1100 -200 l 1,5,-1
 900 -200 l 1,6,-1
 900 0 l 1,7,-1
 1100 0 l 1,4,-1
700 800 m 1,8,-1
 1100 800 l 1,9,-1
 1100 400 l 1,10,-1
 900 400 l 1,11,-1
 900 200 l 1,12,-1
 700 200 l 1,13,-1
 700 0 l 1,14,-1
 500 0 l 1,15,-1
 500 -200 l 1,16,-1
 100 -200 l 1,17,-1
 100 200 l 1,18,-1
 300 200 l 1,19,-1
 300 400 l 1,20,-1
 500 400 l 1,21,-1
 500 600 l 1,22,-1
 700 600 l 1,23,-1
 700 800 l 1,8,-1
EndSplineSet
EndChar

StartChar: ampersand
Encoding: 38 38 10
Width: 1200
GlyphClass: 1
Flags: W
LayerCount: 2
Fore
SplineSet
700 800 m 1,0,-1
 700 200 l 1,1,-1
 900 200 l 1,2,-1
 900 400 l 1,3,-1
 1100 400 l 1,4,-1
 1100 200 l 1,5,-1
 900 200 l 1,6,-1
 900 0 l 1,7,-1
 1100 0 l 1,8,-1
 1100 -200 l 1,9,-1
 900 -200 l 1,10,-1
 900 0 l 1,11,-1
 700 0 l 1,12,-1
 700 -200 l 1,13,-1
 100 -200 l 1,14,-1
 100 200 l 1,15,-1
 300 200 l 1,16,-1
 300 400 l 1,17,-1
 100 400 l 1,18,-1
 100 600 l 1,19,-1
 300 600 l 1,20,-1
 300 800 l 1,21,-1
 700 800 l 1,0,-1
500 600 m 1,22,-1
 300 600 l 1,23,-1
 300 400 l 1,24,-1
 500 400 l 1,25,-1
 500 600 l 1,22,-1
700 200 m 1,26,-1
 300 200 l 1,27,-1
 300 0 l 1,28,-1
 700 0 l 1,29,-1
 700 200 l 1,26,-1
EndSplineSet
EndChar

StartChar: quotesingle
Encoding: 39 39 11
Width: 600
GlyphClass: 1
Flags: W
LayerCount: 2
Fore
SplineSet
500 800 m 1,0,-1
 500 600 l 1,1,-1
 300 600 l 1,2,-1
 300 400 l 1,3,-1
 100 400 l 1,4,-1
 100 600 l 1,5,-1
 300 600 l 1,6,-1
 300 800 l 1,7,-1
 500 800 l 1,0,-1
EndSplineSet
EndChar

StartChar: parenleft
Encoding: 40 40 12
Width: 600
GlyphClass: 1
Flags: W
LayerCount: 2
Fore
SplineSet
300 800 m 1,0,-1
 500 800 l 1,1,-1
 500 600 l 1,2,-1
 300 600 l 1,3,-1
 300 800 l 1,0,-1
300 0 m 1,4,-1
 100 0 l 1,5,-1
 100 600 l 1,6,-1
 300 600 l 1,7,-1
 300 0 l 1,4,-1
300 0 m 1,8,-1
 500 0 l 1,9,-1
 500 -200 l 1,10,-1
 300 -200 l 1,11,-1
 300 0 l 1,8,-1
EndSplineSet
EndChar

StartChar: parenright
Encoding: 41 41 13
Width: 600
GlyphClass: 1
Flags: W
LayerCount: 2
Fore
SplineSet
300 -200 m 1,0,-1
 100 -200 l 1,1,-1
 100 0 l 1,2,-1
 300 0 l 1,3,-1
 300 -200 l 1,0,-1
300 600 m 1,4,-1
 500 600 l 1,5,-1
 500 0 l 1,6,-1
 300 0 l 1,7,-1
 300 600 l 1,4,-1
300 600 m 1,8,-1
 100 600 l 1,9,-1
 100 800 l 1,10,-1
 300 800 l 1,11,-1
 300 600 l 1,8,-1
EndSplineSet
EndChar

StartChar: asterisk
Encoding: 42 42 14
Width: 800
GlyphClass: 1
Flags: W
LayerCount: 2
Fore
SplineSet
500 800 m 1,0,-1
 500 600 l 1,1,-1
 700 600 l 1,2,-1
 700 400 l 1,3,-1
 500 400 l 1,4,-1
 500 200 l 1,5,-1
 300 200 l 1,6,-1
 300 400 l 1,7,-1
 100 400 l 1,8,-1
 100 600 l 1,9,-1
 300 600 l 1,10,-1
 300 800 l 1,11,-1
 500 800 l 1,0,-1
EndSplineSet
EndChar

StartChar: plus
Encoding: 43 43 15
Width: 800
GlyphClass: 1
Flags: W
LayerCount: 2
Fore
SplineSet
500 600 m 1,0,-1
 500 400 l 1,1,-1
 700 400 l 1,2,-1
 700 200 l 1,3,-1
 500 200 l 1,4,-1
 500 0 l 1,5,-1
 300 0 l 1,6,-1
 300 200 l 1,7,-1
 100 200 l 1,8,-1
 100 400 l 1,9,-1
 300 400 l 1,10,-1
 300 600 l 1,11,-1
 500 600 l 1,0,-1
EndSplineSet
EndChar

StartChar: comma
Encoding: 44 44 16
Width: 600
GlyphClass: 1
Flags: W
LayerCount: 2
Fore
SplineSet
100 0 m 1,0,-1
 300 0 l 1,1,-1
 300 -200 l 1,2,-1
 100 -200 l 1,3,-1
 100 0 l 1,0,-1
300 200 m 1,4,-1
 500 200 l 1,5,-1
 500 0 l 1,6,-1
 300 0 l 1,7,-1
 300 200 l 1,4,-1
EndSplineSet
EndChar

StartChar: hyphen
Encoding: 45 45 17
Width: 800
GlyphClass: 1
Flags: W
LayerCount: 2
Fore
SplineSet
100 200 m 1,0,-1
 100 400 l 1,1,-1
 700 400 l 1,2,-1
 700 200 l 1,3,-1
 100 200 l 1,0,-1
EndSplineSet
EndChar

StartChar: period
Encoding: 46 46 18
Width: 400
GlyphClass: 1
Flags: W
LayerCount: 2
Fore
SplineSet
100 0 m 1,0,-1
 300 0 l 1,1,-1
 300 -200 l 1,2,-1
 100 -200 l 1,3,-1
 100 0 l 1,0,-1
EndSplineSet
EndChar

StartChar: slash
Encoding: 47 47 19
Width: 800
GlyphClass: 1
Flags: W
LayerCount: 2
Fore
SplineSet
700 800 m 1,0,-1
 700 400 l 1,1,-1
 500 400 l 1,2,-1
 500 200 l 1,3,-1
 300 200 l 1,4,-1
 300 -200 l 1,5,-1
 100 -200 l 1,6,-1
 100 200 l 1,7,-1
 300 200 l 1,8,-1
 300 400 l 1,9,-1
 500 400 l 1,10,-1
 500 800 l 1,11,-1
 700 800 l 1,0,-1
EndSplineSet
EndChar

StartChar: zero
Encoding: 48 48 20
Width: 1200
GlyphClass: 1
Flags: W
LayerCount: 2
Fore
SplineSet
900 600 m 1,0,-1
 1100 600 l 1,1,-1
 1100 0 l 1,2,-1
 900 0 l 1,3,-1
 900 -200 l 1,4,-1
 300 -200 l 1,5,-1
 300 0 l 1,6,-1
 100 0 l 1,7,-1
 100 600 l 1,8,-1
 300 600 l 1,9,-1
 300 800 l 1,10,-1
 900 800 l 1,11,-1
 900 600 l 1,0,-1
900 600 m 1,12,-1
 300 600 l 1,13,-1
 300 0 l 1,14,-1
 900 0 l 1,15,-1
 900 600 l 1,12,-1
EndSplineSet
EndChar

StartChar: one
Encoding: 49 49 21
Width: 800
GlyphClass: 1
Flags: W
LayerCount: 2
Fore
SplineSet
300 800 m 1,0,-1
 500 800 l 1,1,-1
 500 0 l 1,2,-1
 700 0 l 1,3,-1
 700 -200 l 1,4,-1
 100 -200 l 1,5,-1
 100 0 l 1,6,-1
 300 0 l 1,7,-1
 300 400 l 1,8,-1
 100 400 l 1,9,-1
 100 600 l 1,10,-1
 300 600 l 1,11,-1
 300 800 l 1,0,-1
EndSplineSet
EndChar

StartChar: two
Encoding: 50 50 22
Width: 1200
GlyphClass: 1
Flags: W
LayerCount: 2
Fore
SplineSet
900 800 m 1,0,-1
 900 600 l 1,1,-1
 1100 600 l 1,2,-1
 1100 400 l 1,3,-1
 900 400 l 1,4,-1
 900 200 l 1,5,-1
 500 200 l 1,6,-1
 500 0 l 1,7,-1
 1100 0 l 1,8,-1
 1100 -200 l 1,9,-1
 100 -200 l 1,10,-1
 100 0 l 1,11,-1
 300 0 l 1,12,-1
 300 200 l 1,13,-1
 500 200 l 1,14,-1
 500 400 l 1,15,-1
 900 400 l 1,16,-1
 900 600 l 1,17,-1
 300 600 l 1,18,-1
 300 400 l 1,19,-1
 100 400 l 1,20,-1
 100 600 l 1,21,-1
 300 600 l 1,22,-1
 300 800 l 1,23,-1
 900 800 l 1,0,-1
EndSplineSet
EndChar

StartChar: three
Encoding: 51 51 23
Width: 1200
GlyphClass: 1
Flags: W
LayerCount: 2
Fore
SplineSet
900 800 m 1,0,-1
 900 600 l 1,1,-1
 1100 600 l 1,2,-1
 1100 400 l 1,3,-1
 900 400 l 1,4,-1
 900 200 l 1,5,-1
 1100 200 l 1,6,-1
 1100 0 l 1,7,-1
 900 0 l 1,8,-1
 900 -200 l 1,9,-1
 300 -200 l 1,10,-1
 300 0 l 1,11,-1
 100 0 l 1,12,-1
 100 200 l 1,13,-1
 300 200 l 1,14,-1
 300 0 l 1,15,-1
 900 0 l 1,16,-1
 900 200 l 1,17,-1
 500 200 l 1,18,-1
 500 400 l 1,19,-1
 900 400 l 1,20,-1
 900 600 l 1,21,-1
 300 600 l 1,22,-1
 300 400 l 1,23,-1
 100 400 l 1,24,-1
 100 600 l 1,25,-1
 300 600 l 1,26,-1
 300 800 l 1,27,-1
 900 800 l 1,0,-1
EndSplineSet
EndChar

StartChar: four
Encoding: 52 52 24
Width: 1200
GlyphClass: 1
Flags: W
LayerCount: 2
Fore
SplineSet
900 600 m 1,0,-1
 500 600 l 1,1,-1
 500 800 l 1,2,-1
 1100 800 l 1,3,-1
 1100 -200 l 1,4,-1
 900 -200 l 1,5,-1
 900 0 l 1,6,-1
 100 0 l 1,7,-1
 100 400 l 1,8,-1
 300 400 l 1,9,-1
 300 200 l 1,10,-1
 900 200 l 1,11,-1
 900 600 l 1,0,-1
300 400 m 1,12,-1
 300 600 l 1,13,-1
 500 600 l 1,14,-1
 500 400 l 1,15,-1
 300 400 l 1,12,-1
EndSplineSet
EndChar

StartChar: five
Encoding: 53 53 25
Width: 1200
GlyphClass: 1
Flags: W
LayerCount: 2
Fore
SplineSet
300 800 m 1,0,-1
 900 800 l 1,1,-1
 900 600 l 1,2,-1
 300 600 l 1,3,-1
 300 800 l 1,0,-1
300 0 m 1,4,-1
 900 0 l 1,5,-1
 900 -200 l 1,6,-1
 300 -200 l 1,7,-1
 300 0 l 1,4,-1
300 400 m 1,8,-1
 900 400 l 1,9,-1
 900 200 l 1,10,-1
 300 200 l 1,11,-1
 300 400 l 1,8,-1
100 600 m 1,12,-1
 300 600 l 1,13,-1
 300 400 l 1,14,-1
 100 400 l 1,15,-1
 100 600 l 1,12,-1
900 200 m 1,16,-1
 1100 200 l 1,17,-1
 1100 0 l 1,18,-1
 900 0 l 1,19,-1
 900 200 l 1,16,-1
EndSplineSet
EndChar

StartChar: six
Encoding: 54 54 26
Width: 1200
GlyphClass: 1
Flags: W
LayerCount: 2
Fore
SplineSet
900 800 m 1,0,-1
 900 600 l 1,1,-1
 300 600 l 1,2,-1
 300 800 l 1,3,-1
 900 800 l 1,0,-1
900 200 m 1,4,-1
 1100 200 l 1,5,-1
 1100 0 l 1,6,-1
 900 0 l 1,7,-1
 900 -200 l 1,8,-1
 300 -200 l 1,9,-1
 300 0 l 1,10,-1
 100 0 l 1,11,-1
 100 600 l 1,12,-1
 300 600 l 1,13,-1
 300 400 l 1,14,-1
 900 400 l 1,15,-1
 900 200 l 1,4,-1
900 200 m 1,16,-1
 300 200 l 1,17,-1
 300 0 l 1,18,-1
 900 0 l 1,19,-1
 900 200 l 1,16,-1
EndSplineSet
EndChar

StartChar: seven
Encoding: 55 55 27
Width: 1200
GlyphClass: 1
Flags: W
LayerCount: 2
Fore
SplineSet
100 800 m 1,0,-1
 1100 800 l 1,1,-1
 1100 400 l 1,2,-1
 900 400 l 1,3,-1
 900 600 l 1,4,-1
 100 600 l 1,5,-1
 100 800 l 1,0,-1
700 200 m 1,6,-1
 700 400 l 1,7,-1
 900 400 l 1,8,-1
 900 200 l 1,9,-1
 700 200 l 1,6,-1
500 0 m 1,10,-1
 500 200 l 1,11,-1
 700 200 l 1,12,-1
 700 0 l 1,13,-1
 500 0 l 1,10,-1
500 0 m 1,14,-1
 500 -200 l 1,15,-1
 300 -200 l 1,16,-1
 300 0 l 1,17,-1
 500 0 l 1,14,-1
EndSplineSet
EndChar

StartChar: eight
Encoding: 56 56 28
Width: 1200
GlyphClass: 1
Flags: W
LayerCount: 2
Fore
SplineSet
300 800 m 1,0,-1
 900 800 l 1,1,-1
 900 600 l 1,2,-1
 300 600 l 1,3,-1
 300 800 l 1,0,-1
300 400 m 1,4,-1
 100 400 l 1,5,-1
 100 600 l 1,6,-1
 300 600 l 1,7,-1
 300 400 l 1,4,-1
900 400 m 1,8,-1
 900 200 l 1,9,-1
 1100 200 l 1,10,-1
 1100 0 l 1,11,-1
 900 0 l 1,12,-1
 900 -200 l 1,13,-1
 300 -200 l 1,14,-1
 300 0 l 1,15,-1
 100 0 l 1,16,-1
 100 200 l 1,17,-1
 300 200 l 1,18,-1
 300 400 l 1,19,-1
 900 400 l 1,8,-1
900 200 m 1,20,-1
 300 200 l 1,21,-1
 300 0 l 1,22,-1
 900 0 l 1,23,-1
 900 200 l 1,20,-1
900 400 m 1,24,-1
 900 600 l 1,25,-1
 1100 600 l 1,26,-1
 1100 400 l 1,27,-1
 900 400 l 1,24,-1
EndSplineSet
EndChar

StartChar: nine
Encoding: 57 57 29
Width: 1200
GlyphClass: 1
Flags: W
LayerCount: 2
Fore
SplineSet
900 800 m 1,0,-1
 900 600 l 1,1,-1
 1100 600 l 1,2,-1
 1100 0 l 1,3,-1
 900 0 l 1,4,-1
 900 -200 l 1,5,-1
 300 -200 l 1,6,-1
 300 0 l 1,7,-1
 900 0 l 1,8,-1
 900 200 l 1,9,-1
 300 200 l 1,10,-1
 300 400 l 1,11,-1
 100 400 l 1,12,-1
 100 600 l 1,13,-1
 300 600 l 1,14,-1
 300 800 l 1,15,-1
 900 800 l 1,0,-1
900 600 m 1,16,-1
 300 600 l 1,17,-1
 300 400 l 1,18,-1
 900 400 l 1,19,-1
 900 600 l 1,16,-1
EndSplineSet
EndChar

StartChar: colon
Encoding: 58 58 30
Width: 400
GlyphClass: 1
Flags: W
LayerCount: 2
Fore
SplineSet
300 600 m 1,0,-1
 300 400 l 1,1,-1
 100 400 l 1,2,-1
 100 600 l 1,3,-1
 300 600 l 1,0,-1
300 200 m 1,4,-1
 300 0 l 1,5,-1
 100 0 l 1,6,-1
 100 200 l 1,7,-1
 300 200 l 1,4,-1
EndSplineSet
EndChar

StartChar: semicolon
Encoding: 59 59 31
Width: 700
GlyphClass: 1
Flags: W
LayerCount: 2
Fore
SplineSet
350 800 m 1,0,-1
 600 800 l 1,1,-1
 600 550 l 1,2,-1
 350 550 l 1,3,-1
 350 800 l 1,0,-1
350 300 m 1,4,-1
 600 300 l 1,5,-1
 600 50 l 1,6,-1
 350 50 l 1,7,-1
 350 300 l 1,4,-1
350 50 m 1,8,-1
 350 -200 l 1,9,-1
 100 -200 l 1,10,-1
 100 50 l 1,11,-1
 350 50 l 1,8,-1
EndSplineSet
EndChar

StartChar: less
Encoding: 60 60 32
Width: 800
GlyphClass: 1
Flags: W
LayerCount: 2
Fore
SplineSet
700 800 m 1,0,-1
 700 600 l 1,1,-1
 500 600 l 1,2,-1
 500 800 l 1,3,-1
 700 800 l 1,0,-1
300 400 m 1,4,-1
 300 600 l 1,5,-1
 500 600 l 1,6,-1
 500 400 l 1,7,-1
 300 400 l 1,4,-1
300 200 m 1,8,-1
 100 200 l 1,9,-1
 100 400 l 1,10,-1
 300 400 l 1,11,-1
 300 200 l 1,8,-1
500 0 m 1,12,-1
 300 0 l 1,13,-1
 300 200 l 1,14,-1
 500 200 l 1,15,-1
 500 0 l 1,12,-1
500 0 m 1,16,-1
 700 0 l 1,17,-1
 700 -200 l 1,18,-1
 500 -200 l 1,19,-1
 500 0 l 1,16,-1
EndSplineSet
EndChar

StartChar: equal
Encoding: 61 61 33
Width: 1200
GlyphClass: 1
Flags: W
LayerCount: 2
Fore
SplineSet
1100 800 m 1,0,-1
 1100 467 l 1,1,-1
 100 467 l 1,2,-1
 100 800 l 1,3,-1
 1100 800 l 1,0,-1
1100 133 m 1,4,-1
 1100 -200 l 1,5,-1
 100 -200 l 1,6,-1
 100 133 l 1,7,-1
 1100 133 l 1,4,-1
EndSplineSet
EndChar

StartChar: greater
Encoding: 62 62 34
Width: 800
GlyphClass: 1
Flags: W
LayerCount: 2
Fore
SplineSet
100 800 m 1,0,-1
 300 800 l 1,1,-1
 300 600 l 1,2,-1
 100 600 l 1,3,-1
 100 800 l 1,0,-1
500 400 m 1,4,-1
 300 400 l 1,5,-1
 300 600 l 1,6,-1
 500 600 l 1,7,-1
 500 400 l 1,4,-1
500 200 m 1,8,-1
 500 400 l 1,9,-1
 700 400 l 1,10,-1
 700 200 l 1,11,-1
 500 200 l 1,8,-1
300 0 m 1,12,-1
 300 200 l 1,13,-1
 500 200 l 1,14,-1
 500 0 l 1,15,-1
 300 0 l 1,12,-1
300 0 m 1,16,-1
 300 -200 l 1,17,-1
 100 -200 l 1,18,-1
 100 0 l 1,19,-1
 300 0 l 1,16,-1
EndSplineSet
EndChar

StartChar: question
Encoding: 63 63 35
Width: 1200
GlyphClass: 1
Flags: W
LayerCount: 2
Fore
SplineSet
300 800 m 1,0,-1
 900 800 l 1,1,-1
 900 600 l 1,2,-1
 300 600 l 1,3,-1
 300 800 l 1,0,-1
300 600 m 1,4,-1
 300 400 l 1,5,-1
 100 400 l 1,6,-1
 100 600 l 1,7,-1
 300 600 l 1,4,-1
900 200 m 1,8,-1
 900 600 l 1,9,-1
 1100 600 l 1,10,-1
 1100 200 l 1,11,-1
 900 200 l 1,8,-1
700 0 m 1,12,-1
 700 -200 l 1,13,-1
 500 -200 l 1,14,-1
 500 200 l 1,15,-1
 900 200 l 1,16,-1
 900 0 l 1,17,-1
 700 0 l 1,12,-1
EndSplineSet
EndChar

StartChar: at
Encoding: 64 64 36
Width: 1200
GlyphClass: 1
Flags: W
LayerCount: 2
Fore
SplineSet
700 800 m 1,0,-1
 700 600 l 1,1,-1
 900 600 l 1,2,-1
 900 400 l 1,3,-1
 700 400 l 1,4,-1
 700 200 l 1,5,-1
 500 200 l 1,6,-1
 500 400 l 1,7,-1
 700 400 l 1,8,-1
 700 600 l 1,9,-1
 300 600 l 1,10,-1
 300 0 l 1,11,-1
 900 0 l 1,12,-1
 900 200 l 1,13,-1
 1100 200 l 1,14,-1
 1100 0 l 1,15,-1
 900 0 l 1,16,-1
 900 -200 l 1,17,-1
 300 -200 l 1,18,-1
 300 0 l 1,19,-1
 100 0 l 1,20,-1
 100 600 l 1,21,-1
 300 600 l 1,22,-1
 300 800 l 1,23,-1
 700 800 l 1,0,-1
EndSplineSet
EndChar

StartChar: A
Encoding: 65 65 37
Width: 1200
GlyphClass: 1
Flags: W
LayerCount: 2
Fore
SplineSet
1100 800 m 1,0,-1
 1100 -200 l 1,1,-1
 900 -200 l 1,2,-1
 900 0 l 1,3,-1
 500 0 l 1,4,-1
 500 -200 l 1,5,-1
 100 -200 l 1,6,-1
 100 800 l 1,7,-1
 1100 800 l 1,0,-1
500 200 m 1,8,-1
 900 200 l 1,9,-1
 900 600 l 1,10,-1
 500 600 l 1,11,-1
 500 200 l 1,8,-1
EndSplineSet
EndChar

StartChar: B
Encoding: 66 66 38
Width: 1200
GlyphClass: 1
Flags: W
LayerCount: 2
Fore
SplineSet
100 800 m 1,0,-1
 1100 800 l 1,1,-1
 1100 400 l 1,2,-1
 900 400 l 1,3,-1
 900 200 l 1,4,-1
 1100 200 l 1,5,-1
 1100 -200 l 1,6,-1
 100 -200 l 1,7,-1
 100 800 l 1,0,-1
900 400 m 1,8,-1
 900 600 l 1,9,-1
 500 600 l 1,10,-1
 500 400 l 1,11,-1
 900 400 l 1,8,-1
900 0 m 1,12,-1
 900 200 l 1,13,-1
 500 200 l 1,14,-1
 500 0 l 1,15,-1
 900 0 l 1,12,-1
EndSplineSet
EndChar

StartChar: C
Encoding: 67 67 39
Width: 1200
GlyphClass: 1
Flags: W
LayerCount: 2
Fore
SplineSet
100 800 m 1,0,-1
 1100 800 l 1,1,-1
 1100 400 l 1,2,-1
 900 400 l 1,3,-1
 900 600 l 1,4,-1
 500 600 l 1,5,-1
 500 0 l 1,6,-1
 900 0 l 1,7,-1
 900 200 l 1,8,-1
 1100 200 l 1,9,-1
 1100 -200 l 1,10,-1
 100 -200 l 1,11,-1
 100 800 l 1,0,-1
EndSplineSet
EndChar

StartChar: D
Encoding: 68 68 40
Width: 1200
GlyphClass: 1
Flags: W
LayerCount: 2
Fore
SplineSet
100 800 m 1,0,-1
 1100 800 l 1,1,-1
 1100 -200 l 1,2,-1
 100 -200 l 1,3,-1
 100 800 l 1,0,-1
900 0 m 1,4,-1
 900 600 l 1,5,-1
 500 600 l 1,6,-1
 500 0 l 1,7,-1
 900 0 l 1,4,-1
EndSplineSet
EndChar

StartChar: E
Encoding: 69 69 41
Width: 1200
GlyphClass: 1
Flags: W
LayerCount: 2
Fore
SplineSet
100 800 m 1,0,-1
 1100 800 l 1,1,-1
 1100 600 l 1,2,-1
 500 600 l 1,3,-1
 500 400 l 1,4,-1
 900 400 l 1,5,-1
 900 200 l 1,6,-1
 500 200 l 1,7,-1
 500 0 l 1,8,-1
 1100 0 l 1,9,-1
 1100 -200 l 1,10,-1
 100 -200 l 1,11,-1
 100 800 l 1,0,-1
EndSplineSet
EndChar

StartChar: F
Encoding: 70 70 42
Width: 1200
GlyphClass: 1
Flags: W
LayerCount: 2
Fore
SplineSet
100 800 m 1,0,-1
 1100 800 l 1,1,-1
 1100 600 l 1,2,-1
 500 600 l 1,3,-1
 500 400 l 1,4,-1
 900 400 l 1,5,-1
 900 200 l 1,6,-1
 500 200 l 1,7,-1
 500 -200 l 1,8,-1
 100 -200 l 1,9,-1
 100 800 l 1,0,-1
EndSplineSet
EndChar

StartChar: G
Encoding: 71 71 43
Width: 1200
GlyphClass: 1
Flags: W
LayerCount: 2
Fore
SplineSet
100 800 m 1,0,-1
 1100 800 l 1,1,-1
 1100 600 l 1,2,-1
 500 600 l 1,3,-1
 500 0 l 1,4,-1
 900 0 l 1,5,-1
 900 200 l 1,6,-1
 700 200 l 1,7,-1
 700 400 l 1,8,-1
 1100 400 l 1,9,-1
 1100 -200 l 1,10,-1
 100 -200 l 1,11,-1
 100 800 l 1,0,-1
EndSplineSet
EndChar

StartChar: H
Encoding: 72 72 44
Width: 1200
GlyphClass: 1
Flags: W
LayerCount: 2
Fore
SplineSet
100 800 m 1,0,-1
 500 800 l 1,1,-1
 500 400 l 1,2,-1
 900 400 l 1,3,-1
 900 800 l 1,4,-1
 1100 800 l 1,5,-1
 1100 -200 l 1,6,-1
 900 -200 l 1,7,-1
 900 200 l 1,8,-1
 500 200 l 1,9,-1
 500 -200 l 1,10,-1
 100 -200 l 1,11,-1
 100 800 l 1,0,-1
EndSplineSet
EndChar

StartChar: I
Encoding: 73 73 45
Width: 1200
GlyphClass: 1
Flags: W
LayerCount: 2
Fore
SplineSet
1100 800 m 1,0,-1
 1100 600 l 1,1,-1
 900 600 l 1,2,-1
 900 0 l 1,3,-1
 1100 0 l 1,4,-1
 1100 -200 l 1,5,-1
 100 -200 l 1,6,-1
 100 0 l 1,7,-1
 300 0 l 1,8,-1
 300 600 l 1,9,-1
 100 600 l 1,10,-1
 100 800 l 1,11,-1
 1100 800 l 1,0,-1
EndSplineSet
EndChar

StartChar: J
Encoding: 74 74 46
Width: 1200
GlyphClass: 1
Flags: W
LayerCount: 2
Fore
SplineSet
1100 800 m 1,0,-1
 1100 -200 l 1,1,-1
 100 -200 l 1,2,-1
 100 200 l 1,3,-1
 500 200 l 1,4,-1
 500 0 l 1,5,-1
 700 0 l 1,6,-1
 700 600 l 1,7,-1
 100 600 l 1,8,-1
 100 800 l 1,9,-1
 1100 800 l 1,0,-1
EndSplineSet
EndChar

StartChar: K
Encoding: 75 75 47
Width: 1200
GlyphClass: 1
Flags: W
LayerCount: 2
Fore
SplineSet
100 800 m 1,0,-1
 500 800 l 1,1,-1
 500 400 l 1,2,-1
 700 400 l 1,3,-1
 700 600 l 1,4,-1
 900 600 l 1,5,-1
 900 200 l 1,6,-1
 500 200 l 1,7,-1
 500 -200 l 1,8,-1
 100 -200 l 1,9,-1
 100 800 l 1,0,-1
900 200 m 1,10,-1
 1100 200 l 1,11,-1
 1100 -200 l 1,12,-1
 900 -200 l 1,13,-1
 900 200 l 1,10,-1
900 600 m 1,14,-1
 900 800 l 1,15,-1
 1100 800 l 1,16,-1
 1100 600 l 1,17,-1
 900 600 l 1,14,-1
EndSplineSet
EndChar

StartChar: L
Encoding: 76 76 48
Width: 1200
GlyphClass: 1
Flags: W
LayerCount: 2
Fore
SplineSet
500 800 m 1,0,-1
 500 0 l 1,1,-1
 1100 0 l 1,2,-1
 1100 -200 l 1,3,-1
 100 -200 l 1,4,-1
 100 800 l 1,5,-1
 500 800 l 1,0,-1
EndSplineSet
EndChar

StartChar: M
Encoding: 77 77 49
Width: 1200
GlyphClass: 1
Flags: W
LayerCount: 2
Fore
SplineSet
100 800 m 1,0,-1
 300 800 l 1,1,-1
 300 600 l 1,2,-1
 500 600 l 1,3,-1
 500 400 l 1,4,-1
 700 400 l 1,5,-1
 700 200 l 1,6,-1
 500 200 l 1,7,-1
 500 -200 l 1,8,-1
 100 -200 l 1,9,-1
 100 800 l 1,0,-1
900 600 m 1,10,-1
 900 800 l 1,11,-1
 1100 800 l 1,12,-1
 1100 -200 l 1,13,-1
 900 -200 l 1,14,-1
 900 400 l 1,15,-1
 700 400 l 1,16,-1
 700 600 l 1,17,-1
 900 600 l 1,10,-1
EndSplineSet
EndChar

StartChar: N
Encoding: 78 78 50
Width: 1200
GlyphClass: 1
Flags: W
LayerCount: 2
Fore
SplineSet
100 800 m 1,0,-1
 300 800 l 1,1,-1
 300 600 l 1,2,-1
 500 600 l 1,3,-1
 500 400 l 1,4,-1
 700 400 l 1,5,-1
 700 200 l 1,6,-1
 500 200 l 1,7,-1
 500 -200 l 1,8,-1
 100 -200 l 1,9,-1
 100 800 l 1,0,-1
900 200 m 1,10,-1
 900 800 l 1,11,-1
 1100 800 l 1,12,-1
 1100 -200 l 1,13,-1
 900 -200 l 1,14,-1
 900 0 l 1,15,-1
 700 0 l 1,16,-1
 700 200 l 1,17,-1
 900 200 l 1,10,-1
EndSplineSet
EndChar

StartChar: O
Encoding: 79 79 51
Width: 1200
GlyphClass: 1
Flags: W
LayerCount: 2
Fore
SplineSet
100 800 m 1,0,-1
 1100 800 l 1,1,-1
 1100 -200 l 1,2,-1
 100 -200 l 1,3,-1
 100 800 l 1,0,-1
700 0 m 1,4,-1
 700 600 l 1,5,-1
 500 600 l 1,6,-1
 500 0 l 1,7,-1
 700 0 l 1,4,-1
EndSplineSet
EndChar

StartChar: P
Encoding: 80 80 52
Width: 1200
GlyphClass: 1
Flags: W
LayerCount: 2
Fore
SplineSet
100 800 m 1,0,-1
 1100 800 l 1,1,-1
 1100 0 l 1,2,-1
 500 0 l 1,3,-1
 500 -200 l 1,4,-1
 100 -200 l 1,5,-1
 100 800 l 1,0,-1
900 600 m 1,6,-1
 500 600 l 1,7,-1
 500 200 l 1,8,-1
 900 200 l 1,9,-1
 900 600 l 1,6,-1
EndSplineSet
EndChar

StartChar: Q
Encoding: 81 81 53
Width: 1200
GlyphClass: 1
Flags: W
LayerCount: 2
Fore
SplineSet
100 800 m 1,0,-1
 1100 800 l 1,1,-1
 1100 200 l 1,2,-1
 900 200 l 1,3,-1
 900 0 l 1,4,-1
 1100 0 l 1,5,-1
 1100 -200 l 1,6,-1
 900 -200 l 1,7,-1
 900 0 l 1,8,-1
 700 0 l 1,9,-1
 700 -200 l 1,10,-1
 100 -200 l 1,11,-1
 100 800 l 1,0,-1
500 600 m 1,12,-1
 500 0 l 1,13,-1
 700 0 l 1,14,-1
 700 200 l 1,15,-1
 900 200 l 1,16,-1
 900 600 l 1,17,-1
 500 600 l 1,12,-1
EndSplineSet
EndChar

StartChar: R
Encoding: 82 82 54
Width: 1200
GlyphClass: 1
Flags: W
LayerCount: 2
Fore
SplineSet
100 800 m 1,0,-1
 1100 800 l 1,1,-1
 1100 200 l 1,2,-1
 900 200 l 1,3,-1
 900 600 l 1,4,-1
 500 600 l 1,5,-1
 500 200 l 1,6,-1
 900 200 l 1,7,-1
 900 0 l 1,8,-1
 500 0 l 1,9,-1
 500 -200 l 1,10,-1
 100 -200 l 1,11,-1
 100 800 l 1,0,-1
900 0 m 1,12,-1
 1100 0 l 1,13,-1
 1100 -200 l 1,14,-1
 900 -200 l 1,15,-1
 900 0 l 1,12,-1
EndSplineSet
EndChar

StartChar: S
Encoding: 83 83 55
Width: 1200
GlyphClass: 1
Flags: W
LayerCount: 2
Fore
SplineSet
100 800 m 1,0,-1
 1100 800 l 1,1,-1
 1100 600 l 1,2,-1
 500 600 l 1,3,-1
 500 400 l 1,4,-1
 1100 400 l 1,5,-1
 1100 -200 l 1,6,-1
 100 -200 l 1,7,-1
 100 0 l 1,8,-1
 700 0 l 1,9,-1
 700 200 l 1,10,-1
 100 200 l 1,11,-1
 100 800 l 1,0,-1
EndSplineSet
EndChar

StartChar: T
Encoding: 84 84 56
Width: 1200
GlyphClass: 1
Flags: W
LayerCount: 2
Fore
SplineSet
100 800 m 1,0,-1
 1100 800 l 1,1,-1
 1100 600 l 1,2,-1
 900 600 l 1,3,-1
 900 -200 l 1,4,-1
 300 -200 l 1,5,-1
 300 600 l 1,6,-1
 100 600 l 1,7,-1
 100 800 l 1,0,-1
EndSplineSet
EndChar

StartChar: U
Encoding: 85 85 57
Width: 1200
GlyphClass: 1
Flags: W
LayerCount: 2
Fore
SplineSet
100 800 m 1,0,-1
 500 800 l 1,1,-1
 500 0 l 1,2,-1
 900 0 l 1,3,-1
 900 800 l 1,4,-1
 1100 800 l 1,5,-1
 1100 -200 l 1,6,-1
 100 -200 l 1,7,-1
 100 800 l 1,0,-1
EndSplineSet
EndChar

StartChar: V
Encoding: 86 86 58
Width: 1200
GlyphClass: 1
Flags: W
LayerCount: 2
Fore
SplineSet
100 800 m 1,0,-1
 500 800 l 1,1,-1
 500 0 l 1,2,-1
 700 0 l 1,3,-1
 700 -200 l 1,4,-1
 300 -200 l 1,5,-1
 300 0 l 1,6,-1
 100 0 l 1,7,-1
 100 800 l 1,0,-1
900 200 m 1,8,-1
 900 0 l 1,9,-1
 700 0 l 1,10,-1
 700 200 l 1,11,-1
 900 200 l 1,8,-1
900 200 m 1,12,-1
 900 800 l 1,13,-1
 1100 800 l 1,14,-1
 1100 200 l 1,15,-1
 900 200 l 1,12,-1
EndSplineSet
EndChar

StartChar: W
Encoding: 87 87 59
Width: 1200
GlyphClass: 1
Flags: W
LayerCount: 2
Fore
SplineSet
100 -200 m 1,0,-1
 100 800 l 1,1,-1
 500 800 l 1,2,-1
 500 400 l 1,3,-1
 700 400 l 1,4,-1
 700 200 l 1,5,-1
 500 200 l 1,6,-1
 500 0 l 1,7,-1
 300 0 l 1,8,-1
 300 -200 l 1,9,-1
 100 -200 l 1,0,-1
900 0 m 1,10,-1
 700 0 l 1,11,-1
 700 200 l 1,12,-1
 900 200 l 1,13,-1
 900 800 l 1,14,-1
 1100 800 l 1,15,-1
 1100 -200 l 1,16,-1
 900 -200 l 1,17,-1
 900 0 l 1,10,-1
EndSplineSet
EndChar

StartChar: X
Encoding: 88 88 60
Width: 1200
GlyphClass: 1
Flags: W
LayerCount: 2
Fore
SplineSet
1100 800 m 1,0,-1
 1100 600 l 1,1,-1
 900 600 l 1,2,-1
 900 800 l 1,3,-1
 1100 800 l 1,0,-1
300 0 m 1,4,-1
 300 -200 l 1,5,-1
 100 -200 l 1,6,-1
 100 0 l 1,7,-1
 300 0 l 1,4,-1
100 800 m 1,8,-1
 500 800 l 1,9,-1
 500 600 l 1,10,-1
 700 600 l 1,11,-1
 700 400 l 1,12,-1
 900 400 l 1,13,-1
 900 200 l 1,14,-1
 1100 200 l 1,15,-1
 1100 -200 l 1,16,-1
 700 -200 l 1,17,-1
 700 0 l 1,18,-1
 500 0 l 1,19,-1
 500 200 l 1,20,-1
 300 200 l 1,21,-1
 300 400 l 1,22,-1
 100 400 l 1,23,-1
 100 800 l 1,8,-1
EndSplineSet
EndChar

StartChar: Y
Encoding: 89 89 61
Width: 1200
GlyphClass: 1
Flags: W
LayerCount: 2
Fore
SplineSet
500 800 m 1,0,-1
 500 400 l 1,1,-1
 700 400 l 1,2,-1
 700 800 l 1,3,-1
 1100 800 l 1,4,-1
 1100 -200 l 1,5,-1
 100 -200 l 1,6,-1
 100 0 l 1,7,-1
 700 0 l 1,8,-1
 700 200 l 1,9,-1
 100 200 l 1,10,-1
 100 800 l 1,11,-1
 500 800 l 1,0,-1
EndSplineSet
EndChar

StartChar: Z
Encoding: 90 90 62
Width: 1200
GlyphClass: 1
Flags: W
LayerCount: 2
Fore
SplineSet
100 800 m 1,0,-1
 1100 800 l 1,1,-1
 1100 400 l 1,2,-1
 900 400 l 1,3,-1
 900 200 l 1,4,-1
 700 200 l 1,5,-1
 700 0 l 1,6,-1
 1100 0 l 1,7,-1
 1100 -200 l 1,8,-1
 100 -200 l 1,9,-1
 100 200 l 1,10,-1
 300 200 l 1,11,-1
 300 400 l 1,12,-1
 500 400 l 1,13,-1
 500 600 l 1,14,-1
 100 600 l 1,15,-1
 100 800 l 1,0,-1
EndSplineSet
EndChar

StartChar: bracketleft
Encoding: 91 91 63
Width: 600
GlyphClass: 1
Flags: W
LayerCount: 2
Fore
SplineSet
500 800 m 1,0,-1
 500 600 l 1,1,-1
 300 600 l 1,2,-1
 300 0 l 1,3,-1
 500 0 l 1,4,-1
 500 -200 l 1,5,-1
 100 -200 l 1,6,-1
 100 800 l 1,7,-1
 500 800 l 1,0,-1
EndSplineSet
EndChar

StartChar: backslash
Encoding: 92 92 64
Width: 800
GlyphClass: 1
Flags: W
LayerCount: 2
Fore
SplineSet
100 800 m 1,0,-1
 300 800 l 1,1,-1
 300 400 l 1,2,-1
 500 400 l 1,3,-1
 500 200 l 1,4,-1
 700 200 l 1,5,-1
 700 -200 l 1,6,-1
 500 -200 l 1,7,-1
 500 200 l 1,8,-1
 300 200 l 1,9,-1
 300 400 l 1,10,-1
 100 400 l 1,11,-1
 100 800 l 1,0,-1
EndSplineSet
EndChar

StartChar: bracketright
Encoding: 93 93 65
Width: 600
GlyphClass: 1
Flags: W
LayerCount: 2
Fore
SplineSet
100 -200 m 1,0,-1
 100 0 l 1,1,-1
 300 0 l 1,2,-1
 300 600 l 1,3,-1
 100 600 l 1,4,-1
 100 800 l 1,5,-1
 500 800 l 1,6,-1
 500 -200 l 1,7,-1
 100 -200 l 1,0,-1
EndSplineSet
EndChar

StartChar: asciicircum
Encoding: 94 94 66
Width: 1200
GlyphClass: 1
Flags: W
LayerCount: 2
Fore
SplineSet
700 800 m 1,0,-1
 700 600 l 1,1,-1
 900 600 l 1,2,-1
 900 400 l 1,3,-1
 1100 400 l 1,4,-1
 1100 200 l 1,5,-1
 900 200 l 1,6,-1
 900 400 l 1,7,-1
 700 400 l 1,8,-1
 700 600 l 1,9,-1
 500 600 l 1,10,-1
 500 400 l 1,11,-1
 300 400 l 1,12,-1
 300 200 l 1,13,-1
 100 200 l 1,14,-1
 100 400 l 1,15,-1
 300 400 l 1,16,-1
 300 600 l 1,17,-1
 500 600 l 1,18,-1
 500 800 l 1,19,-1
 700 800 l 1,0,-1
EndSplineSet
EndChar

StartChar: underscore
Encoding: 95 95 67
Width: 1200
GlyphClass: 1
Flags: W
LayerCount: 2
Fore
SplineSet
100 -200 m 1,0,-1
 100 0 l 1,1,-1
 1100 0 l 1,2,-1
 1100 -200 l 1,3,-1
 100 -200 l 1,0,-1
EndSplineSet
EndChar

StartChar: grave
Encoding: 96 96 68
Width: 600
GlyphClass: 1
Flags: W
LayerCount: 2
Fore
SplineSet
300 800 m 1,0,-1
 300 600 l 1,1,-1
 500 600 l 1,2,-1
 500 400 l 1,3,-1
 300 400 l 1,4,-1
 300 600 l 1,5,-1
 100 600 l 1,6,-1
 100 800 l 1,7,-1
 300 800 l 1,0,-1
EndSplineSet
EndChar

StartChar: a
Encoding: 97 97 69
Width: 1200
GlyphClass: 1
Flags: W
LayerCount: 2
Fore
SplineSet
1100 800 m 1,0,-1
 1100 -200 l 1,1,-1
 900 -200 l 1,2,-1
 900 0 l 1,3,-1
 500 0 l 1,4,-1
 500 -200 l 1,5,-1
 100 -200 l 1,6,-1
 100 800 l 1,7,-1
 1100 800 l 1,0,-1
500 200 m 1,8,-1
 900 200 l 1,9,-1
 900 600 l 1,10,-1
 500 600 l 1,11,-1
 500 200 l 1,8,-1
EndSplineSet
EndChar

StartChar: b
Encoding: 98 98 70
Width: 1200
GlyphClass: 1
Flags: W
LayerCount: 2
Fore
SplineSet
100 800 m 1,0,-1
 1100 800 l 1,1,-1
 1100 400 l 1,2,-1
 900 400 l 1,3,-1
 900 200 l 1,4,-1
 1100 200 l 1,5,-1
 1100 -200 l 1,6,-1
 100 -200 l 1,7,-1
 100 800 l 1,0,-1
900 400 m 1,8,-1
 900 600 l 1,9,-1
 500 600 l 1,10,-1
 500 400 l 1,11,-1
 900 400 l 1,8,-1
900 0 m 1,12,-1
 900 200 l 1,13,-1
 500 200 l 1,14,-1
 500 0 l 1,15,-1
 900 0 l 1,12,-1
EndSplineSet
EndChar

StartChar: c
Encoding: 99 99 71
Width: 1200
GlyphClass: 1
Flags: W
LayerCount: 2
Fore
SplineSet
100 800 m 1,0,-1
 1100 800 l 1,1,-1
 1100 400 l 1,2,-1
 900 400 l 1,3,-1
 900 600 l 1,4,-1
 500 600 l 1,5,-1
 500 0 l 1,6,-1
 900 0 l 1,7,-1
 900 200 l 1,8,-1
 1100 200 l 1,9,-1
 1100 -200 l 1,10,-1
 100 -200 l 1,11,-1
 100 800 l 1,0,-1
EndSplineSet
EndChar

StartChar: d
Encoding: 100 100 72
Width: 1200
GlyphClass: 1
Flags: W
LayerCount: 2
Fore
SplineSet
100 800 m 1,0,-1
 1100 800 l 1,1,-1
 1100 -200 l 1,2,-1
 100 -200 l 1,3,-1
 100 800 l 1,0,-1
900 0 m 1,4,-1
 900 600 l 1,5,-1
 500 600 l 1,6,-1
 500 0 l 1,7,-1
 900 0 l 1,4,-1
EndSplineSet
EndChar

StartChar: e
Encoding: 101 101 73
Width: 1200
GlyphClass: 1
Flags: W
LayerCount: 2
Fore
SplineSet
100 800 m 1,0,-1
 1100 800 l 1,1,-1
 1100 600 l 1,2,-1
 500 600 l 1,3,-1
 500 400 l 1,4,-1
 900 400 l 1,5,-1
 900 200 l 1,6,-1
 500 200 l 1,7,-1
 500 0 l 1,8,-1
 1100 0 l 1,9,-1
 1100 -200 l 1,10,-1
 100 -200 l 1,11,-1
 100 800 l 1,0,-1
EndSplineSet
EndChar

StartChar: f
Encoding: 102 102 74
Width: 1200
GlyphClass: 1
Flags: W
LayerCount: 2
Fore
SplineSet
100 800 m 1,0,-1
 1100 800 l 1,1,-1
 1100 600 l 1,2,-1
 500 600 l 1,3,-1
 500 400 l 1,4,-1
 900 400 l 1,5,-1
 900 200 l 1,6,-1
 500 200 l 1,7,-1
 500 -200 l 1,8,-1
 100 -200 l 1,9,-1
 100 800 l 1,0,-1
EndSplineSet
EndChar

StartChar: g
Encoding: 103 103 75
Width: 1200
GlyphClass: 1
Flags: W
LayerCount: 2
Fore
SplineSet
100 800 m 1,0,-1
 1100 800 l 1,1,-1
 1100 600 l 1,2,-1
 500 600 l 1,3,-1
 500 0 l 1,4,-1
 900 0 l 1,5,-1
 900 200 l 1,6,-1
 700 200 l 1,7,-1
 700 400 l 1,8,-1
 1100 400 l 1,9,-1
 1100 -200 l 1,10,-1
 100 -200 l 1,11,-1
 100 800 l 1,0,-1
EndSplineSet
EndChar

StartChar: h
Encoding: 104 104 76
Width: 1200
GlyphClass: 1
Flags: W
LayerCount: 2
Fore
SplineSet
100 800 m 1,0,-1
 500 800 l 1,1,-1
 500 400 l 1,2,-1
 900 400 l 1,3,-1
 900 800 l 1,4,-1
 1100 800 l 1,5,-1
 1100 -200 l 1,6,-1
 900 -200 l 1,7,-1
 900 200 l 1,8,-1
 500 200 l 1,9,-1
 500 -200 l 1,10,-1
 100 -200 l 1,11,-1
 100 800 l 1,0,-1
EndSplineSet
EndChar

StartChar: i
Encoding: 105 105 77
Width: 1200
GlyphClass: 1
Flags: W
LayerCount: 2
Fore
SplineSet
1100 800 m 1,0,-1
 1100 600 l 1,1,-1
 900 600 l 1,2,-1
 900 0 l 1,3,-1
 1100 0 l 1,4,-1
 1100 -200 l 1,5,-1
 100 -200 l 1,6,-1
 100 0 l 1,7,-1
 300 0 l 1,8,-1
 300 600 l 1,9,-1
 100 600 l 1,10,-1
 100 800 l 1,11,-1
 1100 800 l 1,0,-1
EndSplineSet
EndChar

StartChar: j
Encoding: 106 106 78
Width: 1200
GlyphClass: 1
Flags: W
LayerCount: 2
Fore
SplineSet
1100 800 m 1,0,-1
 1100 -200 l 1,1,-1
 100 -200 l 1,2,-1
 100 200 l 1,3,-1
 500 200 l 1,4,-1
 500 0 l 1,5,-1
 700 0 l 1,6,-1
 700 600 l 1,7,-1
 100 600 l 1,8,-1
 100 800 l 1,9,-1
 1100 800 l 1,0,-1
EndSplineSet
EndChar

StartChar: k
Encoding: 107 107 79
Width: 1200
GlyphClass: 1
Flags: W
LayerCount: 2
Fore
SplineSet
100 800 m 1,0,-1
 500 800 l 1,1,-1
 500 400 l 1,2,-1
 700 400 l 1,3,-1
 700 600 l 1,4,-1
 900 600 l 1,5,-1
 900 200 l 1,6,-1
 500 200 l 1,7,-1
 500 -200 l 1,8,-1
 100 -200 l 1,9,-1
 100 800 l 1,0,-1
900 200 m 1,10,-1
 1100 200 l 1,11,-1
 1100 -200 l 1,12,-1
 900 -200 l 1,13,-1
 900 200 l 1,10,-1
900 600 m 1,14,-1
 900 800 l 1,15,-1
 1100 800 l 1,16,-1
 1100 600 l 1,17,-1
 900 600 l 1,14,-1
EndSplineSet
EndChar

StartChar: l
Encoding: 108 108 80
Width: 1200
GlyphClass: 1
Flags: W
LayerCount: 2
Fore
SplineSet
500 800 m 1,0,-1
 500 0 l 1,1,-1
 1100 0 l 1,2,-1
 1100 -200 l 1,3,-1
 100 -200 l 1,4,-1
 100 800 l 1,5,-1
 500 800 l 1,0,-1
EndSplineSet
EndChar

StartChar: m
Encoding: 109 109 81
Width: 1200
GlyphClass: 1
Flags: W
LayerCount: 2
Fore
SplineSet
100 800 m 1,0,-1
 300 800 l 1,1,-1
 300 600 l 1,2,-1
 500 600 l 1,3,-1
 500 400 l 1,4,-1
 700 400 l 1,5,-1
 700 200 l 1,6,-1
 500 200 l 1,7,-1
 500 -200 l 1,8,-1
 100 -200 l 1,9,-1
 100 800 l 1,0,-1
900 600 m 1,10,-1
 900 800 l 1,11,-1
 1100 800 l 1,12,-1
 1100 -200 l 1,13,-1
 900 -200 l 1,14,-1
 900 400 l 1,15,-1
 700 400 l 1,16,-1
 700 600 l 1,17,-1
 900 600 l 1,10,-1
EndSplineSet
EndChar

StartChar: n
Encoding: 110 110 82
Width: 1200
GlyphClass: 1
Flags: W
LayerCount: 2
Fore
SplineSet
100 800 m 1,0,-1
 300 800 l 1,1,-1
 300 600 l 1,2,-1
 500 600 l 1,3,-1
 500 400 l 1,4,-1
 700 400 l 1,5,-1
 700 200 l 1,6,-1
 500 200 l 1,7,-1
 500 -200 l 1,8,-1
 100 -200 l 1,9,-1
 100 800 l 1,0,-1
900 200 m 1,10,-1
 900 800 l 1,11,-1
 1100 800 l 1,12,-1
 1100 -200 l 1,13,-1
 900 -200 l 1,14,-1
 900 0 l 1,15,-1
 700 0 l 1,16,-1
 700 200 l 1,17,-1
 900 200 l 1,10,-1
EndSplineSet
EndChar

StartChar: o
Encoding: 111 111 83
Width: 1200
GlyphClass: 1
Flags: W
LayerCount: 2
Fore
SplineSet
100 800 m 1,0,-1
 1100 800 l 1,1,-1
 1100 -200 l 1,2,-1
 100 -200 l 1,3,-1
 100 800 l 1,0,-1
700 0 m 1,4,-1
 700 600 l 1,5,-1
 500 600 l 1,6,-1
 500 0 l 1,7,-1
 700 0 l 1,4,-1
EndSplineSet
EndChar

StartChar: p
Encoding: 112 112 84
Width: 1200
GlyphClass: 1
Flags: W
LayerCount: 2
Fore
SplineSet
100 800 m 1,0,-1
 1100 800 l 1,1,-1
 1100 0 l 1,2,-1
 500 0 l 1,3,-1
 500 -200 l 1,4,-1
 100 -200 l 1,5,-1
 100 800 l 1,0,-1
900 600 m 1,6,-1
 500 600 l 1,7,-1
 500 200 l 1,8,-1
 900 200 l 1,9,-1
 900 600 l 1,6,-1
EndSplineSet
EndChar

StartChar: q
Encoding: 113 113 85
Width: 1200
GlyphClass: 1
Flags: W
LayerCount: 2
Fore
SplineSet
100 800 m 1,0,-1
 1100 800 l 1,1,-1
 1100 200 l 1,2,-1
 900 200 l 1,3,-1
 900 0 l 1,4,-1
 1100 0 l 1,5,-1
 1100 -200 l 1,6,-1
 900 -200 l 1,7,-1
 900 0 l 1,8,-1
 700 0 l 1,9,-1
 700 -200 l 1,10,-1
 100 -200 l 1,11,-1
 100 800 l 1,0,-1
500 600 m 1,12,-1
 500 0 l 1,13,-1
 700 0 l 1,14,-1
 700 200 l 1,15,-1
 900 200 l 1,16,-1
 900 600 l 1,17,-1
 500 600 l 1,12,-1
EndSplineSet
EndChar

StartChar: r
Encoding: 114 114 86
Width: 1200
GlyphClass: 1
Flags: W
LayerCount: 2
Fore
SplineSet
100 800 m 1,0,-1
 1100 800 l 1,1,-1
 1100 200 l 1,2,-1
 900 200 l 1,3,-1
 900 600 l 1,4,-1
 500 600 l 1,5,-1
 500 200 l 1,6,-1
 900 200 l 1,7,-1
 900 0 l 1,8,-1
 500 0 l 1,9,-1
 500 -200 l 1,10,-1
 100 -200 l 1,11,-1
 100 800 l 1,0,-1
900 0 m 1,12,-1
 1100 0 l 1,13,-1
 1100 -200 l 1,14,-1
 900 -200 l 1,15,-1
 900 0 l 1,12,-1
EndSplineSet
EndChar

StartChar: s
Encoding: 115 115 87
Width: 1200
GlyphClass: 1
Flags: W
LayerCount: 2
Fore
SplineSet
100 800 m 1,0,-1
 1100 800 l 1,1,-1
 1100 600 l 1,2,-1
 500 600 l 1,3,-1
 500 400 l 1,4,-1
 1100 400 l 1,5,-1
 1100 -200 l 1,6,-1
 100 -200 l 1,7,-1
 100 0 l 1,8,-1
 700 0 l 1,9,-1
 700 200 l 1,10,-1
 100 200 l 1,11,-1
 100 800 l 1,0,-1
EndSplineSet
EndChar

StartChar: t
Encoding: 116 116 88
Width: 1200
GlyphClass: 1
Flags: W
LayerCount: 2
Fore
SplineSet
100 800 m 1,0,-1
 1100 800 l 1,1,-1
 1100 600 l 1,2,-1
 900 600 l 1,3,-1
 900 -200 l 1,4,-1
 300 -200 l 1,5,-1
 300 600 l 1,6,-1
 100 600 l 1,7,-1
 100 800 l 1,0,-1
EndSplineSet
EndChar

StartChar: u
Encoding: 117 117 89
Width: 1200
GlyphClass: 1
Flags: W
LayerCount: 2
Fore
SplineSet
100 800 m 1,0,-1
 500 800 l 1,1,-1
 500 0 l 1,2,-1
 900 0 l 1,3,-1
 900 800 l 1,4,-1
 1100 800 l 1,5,-1
 1100 -200 l 1,6,-1
 100 -200 l 1,7,-1
 100 800 l 1,0,-1
EndSplineSet
EndChar

StartChar: v
Encoding: 118 118 90
Width: 1200
GlyphClass: 1
Flags: W
LayerCount: 2
Fore
SplineSet
100 800 m 1,0,-1
 500 800 l 1,1,-1
 500 0 l 1,2,-1
 700 0 l 1,3,-1
 700 -200 l 1,4,-1
 300 -200 l 1,5,-1
 300 0 l 1,6,-1
 100 0 l 1,7,-1
 100 800 l 1,0,-1
900 200 m 1,8,-1
 900 0 l 1,9,-1
 700 0 l 1,10,-1
 700 200 l 1,11,-1
 900 200 l 1,8,-1
900 200 m 1,12,-1
 900 800 l 1,13,-1
 1100 800 l 1,14,-1
 1100 200 l 1,15,-1
 900 200 l 1,12,-1
EndSplineSet
EndChar

StartChar: w
Encoding: 119 119 91
Width: 1200
GlyphClass: 1
Flags: W
LayerCount: 2
Fore
SplineSet
100 -200 m 1,0,-1
 100 800 l 1,1,-1
 500 800 l 1,2,-1
 500 400 l 1,3,-1
 700 400 l 1,4,-1
 700 200 l 1,5,-1
 500 200 l 1,6,-1
 500 0 l 1,7,-1
 300 0 l 1,8,-1
 300 -200 l 1,9,-1
 100 -200 l 1,0,-1
900 0 m 1,10,-1
 700 0 l 1,11,-1
 700 200 l 1,12,-1
 900 200 l 1,13,-1
 900 800 l 1,14,-1
 1100 800 l 1,15,-1
 1100 -200 l 1,16,-1
 900 -200 l 1,17,-1
 900 0 l 1,10,-1
EndSplineSet
EndChar

StartChar: x
Encoding: 120 120 92
Width: 1200
GlyphClass: 1
Flags: W
LayerCount: 2
Fore
SplineSet
1100 800 m 1,0,-1
 1100 600 l 1,1,-1
 900 600 l 1,2,-1
 900 800 l 1,3,-1
 1100 800 l 1,0,-1
300 0 m 1,4,-1
 300 -200 l 1,5,-1
 100 -200 l 1,6,-1
 100 0 l 1,7,-1
 300 0 l 1,4,-1
100 800 m 1,8,-1
 500 800 l 1,9,-1
 500 600 l 1,10,-1
 700 600 l 1,11,-1
 700 400 l 1,12,-1
 900 400 l 1,13,-1
 900 200 l 1,14,-1
 1100 200 l 1,15,-1
 1100 -200 l 1,16,-1
 700 -200 l 1,17,-1
 700 0 l 1,18,-1
 500 0 l 1,19,-1
 500 200 l 1,20,-1
 300 200 l 1,21,-1
 300 400 l 1,22,-1
 100 400 l 1,23,-1
 100 800 l 1,8,-1
EndSplineSet
EndChar

StartChar: y
Encoding: 121 121 93
Width: 1200
GlyphClass: 1
Flags: W
LayerCount: 2
Fore
SplineSet
500 800 m 1,0,-1
 500 400 l 1,1,-1
 700 400 l 1,2,-1
 700 800 l 1,3,-1
 1100 800 l 1,4,-1
 1100 -200 l 1,5,-1
 100 -200 l 1,6,-1
 100 0 l 1,7,-1
 700 0 l 1,8,-1
 700 200 l 1,9,-1
 100 200 l 1,10,-1
 100 800 l 1,11,-1
 500 800 l 1,0,-1
EndSplineSet
EndChar

StartChar: z
Encoding: 122 122 94
Width: 1200
GlyphClass: 1
Flags: W
LayerCount: 2
Fore
SplineSet
100 800 m 1,0,-1
 1100 800 l 1,1,-1
 1100 400 l 1,2,-1
 900 400 l 1,3,-1
 900 200 l 1,4,-1
 700 200 l 1,5,-1
 700 0 l 1,6,-1
 1100 0 l 1,7,-1
 1100 -200 l 1,8,-1
 100 -200 l 1,9,-1
 100 200 l 1,10,-1
 300 200 l 1,11,-1
 300 400 l 1,12,-1
 500 400 l 1,13,-1
 500 600 l 1,14,-1
 100 600 l 1,15,-1
 100 800 l 1,0,-1
EndSplineSet
EndChar

StartChar: braceleft
Encoding: 123 123 95
Width: 800
GlyphClass: 1
Flags: W
LayerCount: 2
Fore
SplineSet
700 800 m 1,0,-1
 700 600 l 1,1,-1
 500 600 l 1,2,-1
 500 0 l 1,3,-1
 700 0 l 1,4,-1
 700 -200 l 1,5,-1
 300 -200 l 1,6,-1
 300 200 l 1,7,-1
 100 200 l 1,8,-1
 100 400 l 1,9,-1
 300 400 l 1,10,-1
 300 800 l 1,11,-1
 700 800 l 1,0,-1
EndSplineSet
EndChar

StartChar: bar
Encoding: 124 124 96
Width: 400
GlyphClass: 1
Flags: W
LayerCount: 2
Fore
SplineSet
100 -200 m 1,0,-1
 100 800 l 1,1,-1
 300 800 l 1,2,-1
 300 -200 l 1,3,-1
 100 -200 l 1,0,-1
EndSplineSet
EndChar

StartChar: braceright
Encoding: 125 125 97
Width: 800
GlyphClass: 1
Flags: W
LayerCount: 2
Fore
SplineSet
100 -200 m 1,0,-1
 100 0 l 1,1,-1
 300 0 l 1,2,-1
 300 600 l 1,3,-1
 100 600 l 1,4,-1
 100 800 l 1,5,-1
 500 800 l 1,6,-1
 500 400 l 1,7,-1
 700 400 l 1,8,-1
 700 200 l 1,9,-1
 500 200 l 1,10,-1
 500 -200 l 1,11,-1
 100 -200 l 1,0,-1
EndSplineSet
EndChar

StartChar: asciitilde
Encoding: 126 126 98
Width: 1200
GlyphClass: 1
Flags: W
LayerCount: 2
Fore
SplineSet
1100 400 m 1,0,-1
 1100 200 l 1,1,-1
 900 200 l 1,2,-1
 900 0 l 1,3,-1
 500 0 l 1,4,-1
 500 200 l 1,5,-1
 300 200 l 1,6,-1
 300 0 l 1,7,-1
 100 0 l 1,8,-1
 100 200 l 1,9,-1
 300 200 l 1,10,-1
 300 400 l 1,11,-1
 700 400 l 1,12,-1
 700 200 l 1,13,-1
 900 200 l 1,14,-1
 900 400 l 1,15,-1
 1100 400 l 1,0,-1
EndSplineSet
EndChar

StartChar: sterling
Encoding: 163 163 131
Width: 1200
GlyphClass: 1
Flags: W
LayerCount: 2
Fore
SplineSet
900 800 m 1,0,-1
 900 600 l 1,1,-1
 1100 600 l 1,2,-1
 1100 400 l 1,3,-1
 900 400 l 1,4,-1
 900 600 l 1,5,-1
 500 600 l 1,6,-1
 500 400 l 1,7,-1
 700 400 l 1,8,-1
 700 200 l 1,9,-1
 500 200 l 1,10,-1
 500 0 l 1,11,-1
 1100 0 l 1,12,-1
 1100 -200 l 1,13,-1
 100 -200 l 1,14,-1
 100 0 l 1,15,-1
 300 0 l 1,16,-1
 300 200 l 1,17,-1
 100 200 l 1,18,-1
 100 400 l 1,19,-1
 300 400 l 1,20,-1
 300 600 l 1,21,-1
 500 600 l 1,22,-1
 500 800 l 1,23,-1
 900 800 l 1,0,-1
EndSplineSet
EndChar

StartChar: mu
Encoding: 181 181 136
Width: 1200
GlyphClass: 1
Flags: W
LayerCount: 2
Fore
SplineSet
100 800 m 1,0,-1
 300 800 l 1,1,-1
 300 200 l 1,2,-1
 500 200 l 1,3,-1
 500 0 l 1,4,-1
 300 0 l 1,5,-1
 300 -200 l 1,6,-1
 100 -200 l 1,7,-1
 100 800 l 1,0,-1
900 0 m 1,8,-1
 900 -200 l 1,9,-1
 500 -200 l 1,10,-1
 500 0 l 1,11,-1
 900 0 l 1,8,-1
900 0 m 1,12,-1
 900 800 l 1,13,-1
 1100 800 l 1,14,-1
 1100 0 l 1,15,-1
 900 0 l 1,12,-1
EndSplineSet
EndChar

StartChar: yen
Encoding: 8226 8226 151
Width: 1200
GlyphClass: 1
Flags: W
LayerCount: 2
Fore
SplineSet
300 800 m 1,0,-1
 300 600 l 1,1,-1
 500 600 l 1,2,-1
 500 400 l 1,3,-1
 700 400 l 1,4,-1
 700 600 l 1,5,-1
 900 600 l 1,6,-1
 900 800 l 1,7,-1
 1100 800 l 1,8,-1
 1100 600 l 1,9,-1
 900 600 l 1,10,-1
 900 400 l 1,11,-1
 700 400 l 1,12,-1
 700 200 l 1,13,-1
 1100 200 l 1,14,-1
 1100 0 l 1,15,-1
 700 0 l 1,16,-1
 700 -200 l 1,17,-1
 500 -200 l 1,18,-1
 500 0 l 1,19,-1
 100 0 l 1,20,-1
 100 200 l 1,21,-1
 500 200 l 1,22,-1
 500 400 l 1,23,-1
 300 400 l 1,24,-1
 300 600 l 1,25,-1
 100 600 l 1,26,-1
 100 800 l 1,27,-1
 300 800 l 1,0,-1
EndSplineSet
EndChar

StartChar: paragraph
Encoding: 8706 8706 152
Width: 1200
GlyphClass: 1
Flags: W
LayerCount: 2
Fore
SplineSet
700 -200 m 1,0,-1
 500 -200 l 1,1,-1
 500 200 l 1,2,-1
 300 200 l 1,3,-1
 300 400 l 1,4,-1
 100 400 l 1,5,-1
 100 600 l 1,6,-1
 300 600 l 1,7,-1
 300 800 l 1,8,-1
 700 800 l 1,9,-1
 700 -200 l 1,0,-1
1100 800 m 1,10,-1
 1100 -200 l 1,11,-1
 900 -200 l 1,12,-1
 900 800 l 1,13,-1
 1100 800 l 1,10,-1
EndSplineSet
EndChar

StartChar: multiply
Encoding: 9674 9674 153
Width: 800
GlyphClass: 1
Flags: W
LayerCount: 2
Fore
SplineSet
100 600 m 1,0,-1
 300 600 l 1,1,-1
 300 400 l 1,2,-1
 100 400 l 1,3,-1
 100 600 l 1,0,-1
500 400 m 1,4,-1
 500 200 l 1,5,-1
 700 200 l 1,6,-1
 700 0 l 1,7,-1
 500 0 l 1,8,-1
 500 200 l 1,9,-1
 300 200 l 1,10,-1
 300 0 l 1,11,-1
 100 0 l 1,12,-1
 100 200 l 1,13,-1
 300 200 l 1,14,-1
 300 400 l 1,15,-1
 500 400 l 1,4,-1
500 400 m 1,16,-1
 500 600 l 1,17,-1
 700 600 l 1,18,-1
 700 400 l 1,19,-1
 500 400 l 1,16,-1
EndSplineSet
EndChar

